<svg xmlns="http://www.w3.org/2000/svg" viewBox="0 0 1200 1050" font-family="Consolas, monospace" font-size="12">
  <title>PLC 2 Breadboard Layout - Vertical Breadboard</title>

  <rect width="1200" height="1050" fill="#fafafa" rx="8"/>

  <text x="600" y="28" text-anchor="middle" font-size="18" font-weight="bold">PLC 2 Breadboard: Arduino Uno R3 + Sensors + MAX485</text>
  <text x="600" y="46" text-anchor="middle" font-size="11" fill="#666">Vertical breadboard, 64 rows, power rails both sides, split at e/f</text>

  <!-- ARDUINO UNO R3 -->
  <rect x="30" y="70" width="170" height="480" rx="10" fill="#2563eb" stroke="#1d4ed8" stroke-width="2"/>
  <rect x="38" y="78" width="154" height="464" rx="7" fill="#1e40af"/>
  <text x="115" y="100" text-anchor="middle" font-size="13" font-weight="bold" fill="white">Arduino Uno R3</text>

  <!-- LEFT: POWER header -->
  <g font-size="8">
    <text x="42" y="130" fill="#93c5fd" font-weight="bold">POWER:</text>
    <rect x="44" y="136" width="14" height="11" rx="1" fill="#666"/><text x="62" y="145" fill="#93c5fd">IOREF</text>
    <rect x="44" y="151" width="14" height="11" rx="1" fill="#666"/><text x="62" y="160" fill="#93c5fd">RESET</text>
    <rect x="44" y="166" width="14" height="11" rx="1" fill="#f59e0b"/><text x="62" y="175" fill="#f59e0b">3.3V</text>
    <rect x="44" y="181" width="14" height="11" rx="1" fill="#dc2626"/><text x="62" y="190" fill="#fca5a5" font-weight="bold">5V</text>
    <rect x="44" y="196" width="14" height="11" rx="1" fill="#333"/><text x="62" y="205" fill="#93c5fd" font-weight="bold">GND</text>
    <rect x="44" y="211" width="14" height="11" rx="1" fill="#333"/><text x="62" y="220" fill="#93c5fd">GND</text>
    <rect x="44" y="226" width="14" height="11" rx="1" fill="#666"/><text x="62" y="235" fill="#93c5fd">Vin</text>
  </g>

  <!-- LEFT: ANALOG header -->
  <g font-size="8">
    <text x="42" y="260" fill="#93c5fd" font-weight="bold">ANALOG IN:</text>
    <rect x="44" y="266" width="14" height="11" rx="1" fill="#2563eb"/><text x="62" y="275" fill="#7dd3fc" font-weight="bold">A0</text>
    <rect x="44" y="281" width="14" height="11" rx="1" fill="#2563eb"/><text x="62" y="290" fill="#7dd3fc" font-weight="bold">A1</text>
    <rect x="44" y="296" width="14" height="11" rx="1" fill="#2563eb"/><text x="62" y="305" fill="#7dd3fc" font-weight="bold">A2</text>
    <rect x="44" y="311" width="14" height="11" rx="1" fill="#2563eb"/><text x="62" y="320" fill="#93c5fd">A3</text>
    <rect x="44" y="326" width="14" height="11" rx="1" fill="#2563eb"/><text x="62" y="335" fill="#93c5fd">A4</text>
    <rect x="44" y="341" width="14" height="11" rx="1" fill="#2563eb"/><text x="62" y="350" fill="#93c5fd">A5</text>
  </g>

  <!-- RIGHT: DIGITAL header -->
  <g font-size="8">
    <text x="120" y="130" fill="#93c5fd" font-weight="bold">DIGITAL:</text>
    <rect x="160" y="136" width="14" height="11" rx="1" fill="#666"/><text x="145" y="145" text-anchor="end" fill="#93c5fd">SCL</text>
    <rect x="160" y="151" width="14" height="11" rx="1" fill="#666"/><text x="145" y="160" text-anchor="end" fill="#93c5fd">SDA</text>
    <rect x="160" y="166" width="14" height="11" rx="1" fill="#666"/><text x="145" y="175" text-anchor="end" fill="#93c5fd">AREF</text>
    <rect x="160" y="181" width="14" height="11" rx="1" fill="#333"/><text x="145" y="190" text-anchor="end" fill="#93c5fd">GND</text>
    <rect x="160" y="196" width="14" height="11" rx="1" fill="#d97706"/><text x="145" y="205" text-anchor="end" fill="#93c5fd">13</text>
    <rect x="160" y="211" width="14" height="11" rx="1" fill="#d97706"/><text x="145" y="220" text-anchor="end" fill="#93c5fd">12</text>
    <rect x="160" y="226" width="14" height="11" rx="1" fill="#d97706"/><text x="145" y="235" text-anchor="end" fill="#93c5fd">11</text>
    <rect x="160" y="241" width="14" height="11" rx="1" fill="#d97706"/><text x="145" y="250" text-anchor="end" fill="#93c5fd">10</text>
    <rect x="160" y="256" width="14" height="11" rx="1" fill="#d97706"/><text x="145" y="265" text-anchor="end" fill="#93c5fd">9</text>
    <rect x="160" y="271" width="14" height="11" rx="1" fill="#d97706"/><text x="145" y="280" text-anchor="end" fill="#93c5fd">8</text>
    <rect x="160" y="296" width="14" height="11" rx="1" fill="#d97706"/><text x="145" y="305" text-anchor="end" fill="#fcd34d" font-weight="bold">7</text>
    <rect x="160" y="311" width="14" height="11" rx="1" fill="#d97706"/><text x="145" y="320" text-anchor="end" fill="#fcd34d" font-weight="bold">6</text>
    <rect x="160" y="326" width="14" height="11" rx="1" fill="#d97706"/><text x="145" y="335" text-anchor="end" fill="#93c5fd">5</text>
    <rect x="160" y="341" width="14" height="11" rx="1" fill="#d97706"/><text x="145" y="350" text-anchor="end" fill="#93c5fd">4</text>
    <rect x="160" y="356" width="14" height="11" rx="1" fill="#d97706"/><text x="145" y="365" text-anchor="end" fill="#fcd34d" font-weight="bold">3</text>
    <rect x="160" y="371" width="14" height="11" rx="1" fill="#d97706"/><text x="145" y="380" text-anchor="end" fill="#fcd34d" font-weight="bold">2</text>
    <rect x="160" y="386" width="14" height="11" rx="1" fill="#d97706"/><text x="145" y="395" text-anchor="end" fill="#fcd34d" font-weight="bold">1 TX</text>
    <rect x="160" y="401" width="14" height="11" rx="1" fill="#d97706"/><text x="145" y="410" text-anchor="end" fill="#fcd34d" font-weight="bold">0 RX</text>
  </g>

  <!-- USB -->
  <rect x="80" y="520" width="60" height="18" rx="3" fill="#888" stroke="#666"/>
  <text x="110" y="533" text-anchor="middle" font-size="7" fill="white">USB-B</text>

  <!-- MAX485 MODULE (sits off-board, connected by jumper wires) -->
  <rect x="30" y="580" width="170" height="220" rx="8" fill="#fef9c3" stroke="#ca8a04" stroke-width="2"/>
  <text x="115" y="605" text-anchor="middle" font-size="13" font-weight="bold" fill="#854d0e">MAX485 Module</text>
  <text x="115" y="620" text-anchor="middle" font-size="9" fill="#a16207">(off-board, via jumper wires)</text>

  <!-- MAX485 pins with female-to-male jumper labels -->
  <g font-size="9" fill="#854d0e">
    <rect x="44" y="640" width="60" height="14" rx="2" fill="#fef3c7" stroke="#ca8a04"/><text x="50" y="651">VCC</text>
    <rect x="44" y="660" width="60" height="14" rx="2" fill="#fef3c7" stroke="#ca8a04"/><text x="50" y="671">GND</text>
    <rect x="44" y="685" width="60" height="14" rx="2" fill="#fef3c7" stroke="#ca8a04"/><text x="50" y="696">B</text>
    <rect x="44" y="705" width="60" height="14" rx="2" fill="#fef3c7" stroke="#ca8a04"/><text x="50" y="716">A</text>
    <rect x="44" y="735" width="60" height="14" rx="2" fill="#fef3c7" stroke="#ca8a04"/><text x="50" y="746">RO</text>
    <rect x="44" y="755" width="60" height="14" rx="2" fill="#fef3c7" stroke="#ca8a04"/><text x="50" y="766">DI</text>
    <rect x="44" y="775" width="60" height="14" rx="2" fill="#fef3c7" stroke="#ca8a04"/><text x="50" y="786">DE</text>
    <rect x="44" y="795" width="60" height="14" rx="2" fill="#fef3c7" stroke="#ca8a04"/><text x="50" y="806">RE</text>
  </g>

  <!-- Jumper wire destinations from MAX485 -->
  <g font-size="8" fill="#333">
    <text x="115" y="651">to + rail</text>
    <text x="115" y="671">to - rail</text>
    <text x="115" y="696">to row 1 (twisted pair)</text>
    <text x="115" y="716">to row 2 (twisted pair)</text>
    <text x="115" y="746">to row 4, then to D0</text>
    <text x="115" y="766">to row 5, then to D1</text>
    <text x="115" y="786">to row 6 col a</text>
    <text x="115" y="806">to row 6 col b (=joined)</text>
  </g>

  <!-- BREADBOARD -->
  <rect x="240" y="70" width="340" height="740" rx="8" fill="#f5f0e0" stroke="#c9b97a" stroke-width="2"/>
  <text x="410" y="88" text-anchor="middle" font-size="10" font-weight="bold" fill="#8b7e5a">BREADBOARD (64 rows)</text>

  <!-- Left power rails -->
  <rect x="250" y="100" width="10" height="695" rx="2" fill="#fee2e2" stroke="#dc2626" stroke-width="1"/>
  <text x="255" y="96" text-anchor="middle" font-size="9" fill="#dc2626" font-weight="bold">+</text>
  <rect x="264" y="100" width="10" height="695" rx="2" fill="#dbeafe" stroke="#2563eb" stroke-width="1"/>
  <text x="269" y="96" text-anchor="middle" font-size="9" fill="#2563eb" font-weight="bold">-</text>

  <!-- Right power rails -->
  <rect x="546" y="100" width="10" height="695" rx="2" fill="#dbeafe" stroke="#2563eb" stroke-width="1"/>
  <rect x="560" y="100" width="10" height="695" rx="2" fill="#fee2e2" stroke="#dc2626" stroke-width="1"/>

  <!-- Column labels -->
  <g font-size="9" fill="#666" font-weight="bold">
    <text x="290" y="96" text-anchor="middle">a</text>
    <text x="310" y="96" text-anchor="middle">b</text>
    <text x="330" y="96" text-anchor="middle">c</text>
    <text x="350" y="96" text-anchor="middle">d</text>
    <text x="370" y="96" text-anchor="middle">e</text>
    <text x="450" y="96" text-anchor="middle">f</text>
    <text x="470" y="96" text-anchor="middle">g</text>
    <text x="490" y="96" text-anchor="middle">h</text>
    <text x="510" y="96" text-anchor="middle">i</text>
    <text x="530" y="96" text-anchor="middle">j</text>
  </g>

  <!-- Center gap -->
  <rect x="380" y="100" width="60" height="695" rx="2" fill="#e8e0c8"/>

  <!-- Row numbers and dots for used rows -->
  <g font-size="7" fill="#999">
    <text x="283" y="115">1</text>
    <text x="283" y="130">2</text>
    <text x="283" y="160">4</text>
    <text x="283" y="175">5</text>
    <text x="283" y="190">6</text>
    <text x="283" y="265">10</text>
    <text x="283" y="325">14</text>
    <text x="283" y="385">18</text>
    <text x="283" y="445">22</text>
    <text x="283" y="505">26</text>
    <text x="283" y="565">30</text>
  </g>

  <!-- Row 1: B terminal (from MAX485 jumper) -->
  <circle cx="290" cy="112" r="3.5" fill="#ca8a04"/>
  <text x="300" y="115" font-size="8" fill="#ca8a04" font-weight="bold">B</text>
  <!-- Twisted pair out from row 1 -->
  <line x1="370" y1="112" x2="450" y2="112" stroke="#ca8a04" stroke-width="3"/>
  <text x="455" y="115" font-size="9" fill="#ca8a04" font-weight="bold">B to PLC 1 (twisted pair)</text>

  <!-- Row 2: A terminal (from MAX485 jumper) -->
  <circle cx="290" cy="127" r="3.5" fill="#ca8a04"/>
  <text x="300" y="130" font-size="8" fill="#ca8a04" font-weight="bold">A</text>
  <!-- Twisted pair out from row 2 -->
  <line x1="370" y1="127" x2="450" y2="127" stroke="#ca8a04" stroke-width="3"/>
  <text x="455" y="130" font-size="9" fill="#ca8a04" font-weight="bold">A to PLC 1 (twisted pair)</text>

  <!-- Row 4: RO (from MAX485 jumper), then jumper to Arduino D0 -->
  <circle cx="290" cy="157" r="3.5" fill="#d97706"/>
  <text x="300" y="160" font-size="8" fill="#d97706">RO</text>
  <line x1="290" y1="160" x2="290" y2="167" stroke="#d97706" stroke-width="2"/>
  <line x1="290" y1="167" x2="220" y2="167" stroke="#d97706" stroke-width="2"/>
  <line x1="220" y1="167" x2="220" y2="407" stroke="#d97706" stroke-width="2"/>
  <line x1="220" y1="407" x2="174" y2="407" stroke="#d97706" stroke-width="2"/>
  <text x="222" y="400" font-size="7" fill="#d97706">to D0 (RX)</text>

  <!-- Row 5: DI (from MAX485 jumper), then jumper to Arduino D1 -->
  <circle cx="290" cy="172" r="3.5" fill="#d97706"/>
  <text x="300" y="175" font-size="8" fill="#d97706">DI</text>
  <line x1="290" y1="175" x2="290" y2="182" stroke="#d97706" stroke-width="2"/>
  <line x1="290" y1="182" x2="215" y2="182" stroke="#d97706" stroke-width="2"/>
  <line x1="215" y1="182" x2="215" y2="392" stroke="#d97706" stroke-width="2"/>
  <line x1="215" y1="392" x2="174" y2="392" stroke="#d97706" stroke-width="2"/>
  <text x="217" y="385" font-size="7" fill="#d97706">to D1 (TX)</text>

  <!-- Row 6: DE in col a, RE in col b (same row = connected), jumper to Arduino D2 -->
  <circle cx="290" cy="187" r="3.5" fill="#d97706"/>
  <circle cx="310" cy="187" r="3.5" fill="#d97706"/>
  <text x="320" y="190" font-size="8" fill="#d97706">DE(a) RE(b)</text>
  <rect x="286" y="183" width="28" height="9" rx="2" fill="none" stroke="#16a34a" stroke-width="1.5" stroke-dasharray="3"/>
  <text x="375" y="190" font-size="7" fill="#16a34a">same row = tied!</text>
  <line x1="290" y1="193" x2="210" y2="193" stroke="#d97706" stroke-width="2"/>
  <line x1="210" y1="193" x2="210" y2="377" stroke="#d97706" stroke-width="2"/>
  <line x1="210" y1="377" x2="174" y2="377" stroke="#d97706" stroke-width="2"/>
  <text x="212" y="370" font-size="7" fill="#d97706">to D2</text>

  <!-- MAX485 VCC jumper to + rail -->
  <line x1="104" y1="647" x2="240" y2="647" stroke="#dc2626" stroke-width="2"/>
  <line x1="240" y1="647" x2="240" y2="140" stroke="#dc2626" stroke-width="2"/>
  <line x1="240" y1="140" x2="255" y2="140" stroke="#dc2626" stroke-width="2"/>
  <circle cx="255" cy="140" r="3" fill="#dc2626"/>

  <!-- MAX485 GND jumper to - rail -->
  <line x1="104" y1="667" x2="235" y2="667" stroke="#2563eb" stroke-width="2"/>
  <line x1="235" y1="667" x2="235" y2="150" stroke="#2563eb" stroke-width="2"/>
  <line x1="235" y1="150" x2="269" y2="150" stroke="#2563eb" stroke-width="2"/>
  <circle cx="269" cy="150" r="3" fill="#2563eb"/>

  <!-- MAX485 B jumper to row 1 col a -->
  <line x1="104" y1="692" x2="230" y2="692" stroke="#ca8a04" stroke-width="2"/>
  <line x1="230" y1="692" x2="230" y2="112" stroke="#ca8a04" stroke-width="2"/>
  <line x1="230" y1="112" x2="290" y2="112" stroke="#ca8a04" stroke-width="2"/>

  <!-- MAX485 A jumper to row 2 col a -->
  <line x1="104" y1="712" x2="225" y2="712" stroke="#ca8a04" stroke-width="2"/>
  <line x1="225" y1="712" x2="225" y2="127" stroke="#ca8a04" stroke-width="2"/>
  <line x1="225" y1="127" x2="290" y2="127" stroke="#ca8a04" stroke-width="2"/>

  <!-- MAX485 RO jumper to row 4 col a -->
  <line x1="104" y1="742" x2="222" y2="742" stroke="#d97706" stroke-width="2"/>
  <line x1="222" y1="742" x2="222" y2="157" stroke="#d97706" stroke-width="2"/>
  <line x1="222" y1="157" x2="290" y2="157" stroke="#d97706" stroke-width="2"/>

  <!-- MAX485 DI jumper to row 5 col a -->
  <line x1="104" y1="762" x2="219" y2="762" stroke="#d97706" stroke-width="2"/>
  <line x1="219" y1="762" x2="219" y2="172" stroke="#d97706" stroke-width="2"/>
  <line x1="219" y1="172" x2="290" y2="172" stroke="#d97706" stroke-width="2"/>

  <!-- MAX485 DE jumper to row 6 col a -->
  <line x1="104" y1="782" x2="216" y2="782" stroke="#d97706" stroke-width="2"/>
  <line x1="216" y1="782" x2="216" y2="187" stroke="#d97706" stroke-width="2"/>
  <line x1="216" y1="187" x2="290" y2="187" stroke="#d97706" stroke-width="2"/>

  <!-- MAX485 RE jumper to row 6 col b -->
  <line x1="104" y1="802" x2="213" y2="802" stroke="#d97706" stroke-width="2"/>
  <line x1="213" y1="802" x2="213" y2="187" stroke="#d97706" stroke-width="2"/>
  <line x1="213" y1="187" x2="310" y2="187" stroke="#d97706" stroke-width="2"/>

  <!-- POWER RAILS from Arduino -->
  <!-- Arduino 5V to + rail -->
  <line x1="44" y1="187" x2="25" y2="187" stroke="#dc2626" stroke-width="3"/>
  <line x1="25" y1="187" x2="25" y2="57" stroke="#dc2626" stroke-width="3"/>
  <line x1="25" y1="57" x2="255" y2="57" stroke="#dc2626" stroke-width="3"/>
  <line x1="255" y1="57" x2="255" y2="100" stroke="#dc2626" stroke-width="3"/>
  <circle cx="255" cy="107" r="4" fill="#dc2626"/>
  <text x="160" y="55" font-size="9" fill="#dc2626" font-weight="bold">5V to + rail</text>

  <!-- Arduino GND to - rail -->
  <line x1="44" y1="202" x2="20" y2="202" stroke="#2563eb" stroke-width="3"/>
  <line x1="20" y1="202" x2="20" y2="52" stroke="#2563eb" stroke-width="3"/>
  <line x1="20" y1="52" x2="269" y2="52" stroke="#2563eb" stroke-width="3"/>
  <line x1="269" y1="52" x2="269" y2="100" stroke="#2563eb" stroke-width="3"/>
  <circle cx="269" cy="107" r="4" fill="#2563eb"/>
  <text x="160" y="50" font-size="9" fill="#2563eb" font-weight="bold">GND to - rail</text>

  <!-- SENSORS -->

  <!-- Water Level (rows 10-12) -->
  <rect x="286" y="256" width="62" height="48" rx="4" fill="#dcfce7" stroke="#16a34a" stroke-width="2"/>
  <text x="317" y="270" text-anchor="middle" font-size="8" font-weight="bold" fill="#166534">Water Lvl</text>
  <g font-size="7" fill="#166534">
    <text x="292" y="284">S</text><text x="292" y="297">VCC</text>
  </g>
  <text x="336" y="297" font-size="7" fill="#166534">GND</text>

  <line x1="310" y1="294" x2="255" y2="294" stroke="#dc2626" stroke-width="1.5"/>
  <circle cx="255" cy="294" r="3" fill="#dc2626"/>
  <line x1="340" y1="300" x2="370" y2="300" stroke="#2563eb" stroke-width="1.5"/>
  <line x1="370" y1="300" x2="370" y2="306" stroke="#2563eb" stroke-width="1.5"/>
  <line x1="370" y1="306" x2="269" y2="306" stroke="#2563eb" stroke-width="1.5"/>
  <circle cx="269" cy="306" r="3" fill="#2563eb"/>
  <!-- S to A0 -->
  <line x1="290" y1="280" x2="276" y2="280" stroke="#16a34a" stroke-width="2"/>
  <line x1="276" y1="280" x2="205" y2="280" stroke="#16a34a" stroke-width="2"/>
  <line x1="205" y1="280" x2="205" y2="272" stroke="#16a34a" stroke-width="2"/>
  <line x1="205" y1="272" x2="58" y2="272" stroke="#16a34a" stroke-width="2"/>
  <text x="130" y="270" font-size="7" fill="#16a34a">S to A0</text>

  <!-- DHT11 Temperature (rows 14-16) -->
  <rect x="286" y="316" width="62" height="48" rx="4" fill="#dcfce7" stroke="#16a34a" stroke-width="2"/>
  <text x="317" y="330" text-anchor="middle" font-size="8" font-weight="bold" fill="#166534">DHT11</text>
  <text x="317" y="339" text-anchor="middle" font-size="7" fill="#166534">Temp</text>
  <g font-size="7" fill="#166534">
    <text x="292" y="350">S</text><text x="292" y="359">VCC</text>
  </g>
  <text x="336" y="359" font-size="7" fill="#166534">GND</text>

  <line x1="310" y1="356" x2="255" y2="356" stroke="#dc2626" stroke-width="1.5"/>
  <circle cx="255" cy="356" r="3" fill="#dc2626"/>
  <line x1="340" y1="362" x2="370" y2="362" stroke="#2563eb" stroke-width="1.5"/>
  <line x1="370" y1="362" x2="370" y2="368" stroke="#2563eb" stroke-width="1.5"/>
  <line x1="370" y1="368" x2="269" y2="368" stroke="#2563eb" stroke-width="1.5"/>
  <circle cx="269" cy="368" r="3" fill="#2563eb"/>
  <!-- S to D4 (right header, digital) -->
  <line x1="290" y1="346" x2="276" y2="346" stroke="#16a34a" stroke-width="2"/>
  <line x1="276" y1="346" x2="200" y2="346" stroke="#16a34a" stroke-width="2"/>
  <line x1="200" y1="346" x2="200" y2="347" stroke="#16a34a" stroke-width="2"/>
  <line x1="200" y1="347" x2="174" y2="347" stroke="#16a34a" stroke-width="2"/>
  <text x="176" y="344" font-size="7" fill="#16a34a">S to D4</text>

  <!-- Sound (rows 18-20) -->
  <rect x="286" y="376" width="62" height="48" rx="4" fill="#dcfce7" stroke="#16a34a" stroke-width="2"/>
  <text x="317" y="390" text-anchor="middle" font-size="8" font-weight="bold" fill="#166534">Sound</text>
  <g font-size="7" fill="#166534">
    <text x="292" y="404">OUT</text><text x="292" y="417">VCC</text>
  </g>
  <text x="336" y="417" font-size="7" fill="#166534">GND</text>

  <line x1="310" y1="414" x2="255" y2="414" stroke="#dc2626" stroke-width="1.5"/>
  <circle cx="255" cy="414" r="3" fill="#dc2626"/>
  <line x1="340" y1="420" x2="370" y2="420" stroke="#2563eb" stroke-width="1.5"/>
  <line x1="370" y1="420" x2="370" y2="426" stroke="#2563eb" stroke-width="1.5"/>
  <line x1="370" y1="426" x2="269" y2="426" stroke="#2563eb" stroke-width="1.5"/>
  <circle cx="269" cy="426" r="3" fill="#2563eb"/>
  <!-- OUT to A2 -->
  <line x1="290" y1="400" x2="276" y2="400" stroke="#16a34a" stroke-width="2"/>
  <line x1="276" y1="400" x2="195" y2="400" stroke="#16a34a" stroke-width="2"/>
  <line x1="195" y1="400" x2="195" y2="302" stroke="#16a34a" stroke-width="2"/>
  <line x1="195" y1="302" x2="58" y2="302" stroke="#16a34a" stroke-width="2"/>
  <text x="130" y="300" font-size="7" fill="#16a34a">OUT to A2</text>

  <!-- Ultrasonic HC-SR04 (rows 22-25) -->
  <rect x="286" y="436" width="82" height="62" rx="4" fill="#dcfce7" stroke="#16a34a" stroke-width="2"/>
  <text x="327" y="450" text-anchor="middle" font-size="8" font-weight="bold" fill="#166534">Ultrasonic</text>
  <text x="327" y="460" text-anchor="middle" font-size="8" font-weight="bold" fill="#166534">HC-SR04</text>
  <g font-size="7" fill="#166534">
    <text x="292" y="474">VCC</text><text x="350" y="474">GND</text>
    <text x="292" y="487">TRIG</text>
    <text x="292" y="497">ECHO</text>
  </g>

  <line x1="310" y1="471" x2="255" y2="471" stroke="#dc2626" stroke-width="1.5"/>
  <circle cx="255" cy="471" r="3" fill="#dc2626"/>
  <line x1="360" y1="471" x2="370" y2="471" stroke="#2563eb" stroke-width="1.5"/>
  <line x1="370" y1="471" x2="370" y2="478" stroke="#2563eb" stroke-width="1.5"/>
  <line x1="370" y1="478" x2="269" y2="478" stroke="#2563eb" stroke-width="1.5"/>
  <circle cx="269" cy="478" r="3" fill="#2563eb"/>
  <!-- TRIG to D7 -->
  <line x1="290" y1="484" x2="276" y2="484" stroke="#16a34a" stroke-width="2"/>
  <line x1="276" y1="484" x2="190" y2="484" stroke="#16a34a" stroke-width="2"/>
  <line x1="190" y1="484" x2="190" y2="302" stroke="#16a34a" stroke-width="2"/>
  <line x1="190" y1="302" x2="174" y2="302" stroke="#16a34a" stroke-width="2"/>
  <text x="176" y="299" font-size="7" fill="#16a34a">TRIG to D7</text>
  <!-- ECHO to D6 -->
  <line x1="290" y1="494" x2="276" y2="494" stroke="#16a34a" stroke-width="2"/>
  <line x1="276" y1="494" x2="185" y2="494" stroke="#16a34a" stroke-width="2"/>
  <line x1="185" y1="494" x2="185" y2="317" stroke="#16a34a" stroke-width="2"/>
  <line x1="185" y1="317" x2="174" y2="317" stroke="#16a34a" stroke-width="2"/>
  <text x="176" y="314" font-size="7" fill="#16a34a">ECHO to D6</text>

  <!-- PIR Motion (rows 28-30) -->
  <rect x="286" y="526" width="62" height="48" rx="4" fill="#dcfce7" stroke="#16a34a" stroke-width="2"/>
  <text x="317" y="540" text-anchor="middle" font-size="8" font-weight="bold" fill="#166534">PIR</text>
  <text x="317" y="550" text-anchor="middle" font-size="8" font-weight="bold" fill="#166534">Motion</text>
  <g font-size="7" fill="#166534">
    <text x="292" y="564">OUT</text><text x="292" y="567">VCC</text>
  </g>
  <text x="336" y="567" font-size="7" fill="#166534">GND</text>

  <line x1="310" y1="564" x2="255" y2="564" stroke="#dc2626" stroke-width="1.5"/>
  <circle cx="255" cy="564" r="3" fill="#dc2626"/>
  <line x1="340" y1="570" x2="370" y2="570" stroke="#2563eb" stroke-width="1.5"/>
  <line x1="370" y1="570" x2="370" y2="576" stroke="#2563eb" stroke-width="1.5"/>
  <line x1="370" y1="576" x2="269" y2="576" stroke="#2563eb" stroke-width="1.5"/>
  <circle cx="269" cy="576" r="3" fill="#2563eb"/>
  <!-- OUT to D3 -->
  <line x1="290" y1="560" x2="276" y2="560" stroke="#16a34a" stroke-width="2"/>
  <line x1="276" y1="560" x2="180" y2="560" stroke="#16a34a" stroke-width="2"/>
  <line x1="180" y1="560" x2="180" y2="362" stroke="#16a34a" stroke-width="2"/>
  <line x1="180" y1="362" x2="174" y2="362" stroke="#16a34a" stroke-width="2"/>
  <text x="176" y="359" font-size="7" fill="#16a34a">OUT to D3</text>

  <!-- BUILD ORDER (right panel) -->
  <rect x="620" y="70" width="560" height="960" rx="8" fill="#f8fafc" stroke="#e2e8f0"/>
  <text x="640" y="100" font-size="16" font-weight="bold" fill="#333">BUILD ORDER</text>

  <g font-size="11">
    <text x="640" y="130" fill="#dc2626" font-weight="bold">STEP 1: Power Rails</text>
    <rect x="640" y="140" width="520" height="50" rx="6" fill="white" stroke="#fca5a5"/>
    <text x="655" y="160" fill="#333">1. Arduino 5V (left, 4th pin) to breadboard + rail</text>
    <text x="655" y="178" fill="#333">2. Arduino GND (left, 5th pin) to breadboard - rail</text>

    <text x="640" y="215" fill="#ca8a04" font-weight="bold">STEP 2: MAX485 Module (8 jumper wires)</text>
    <rect x="640" y="225" width="520" height="195" rx="6" fill="white" stroke="#fef08a"/>
    <text x="655" y="248" fill="#333">Module sits OFF the breadboard. Use 8 female-to-male</text>
    <text x="655" y="266" fill="#333">jumper wires from module pins to breadboard:</text>
    <text x="655" y="291" fill="#dc2626" font-weight="bold">VCC to + rail (any hole)</text>
    <text x="655" y="309" fill="#2563eb" font-weight="bold">GND to - rail (any hole)</text>
    <text x="655" y="327" fill="#ca8a04" font-weight="bold">B to row 1, col a (twisted pair out from col e)</text>
    <text x="655" y="345" fill="#ca8a04" font-weight="bold">A to row 2, col a (twisted pair out from col e)</text>
    <text x="655" y="363" fill="#d97706" font-weight="bold">RO to row 4, col a (jumper col e to Arduino D0)</text>
    <text x="655" y="381" fill="#d97706" font-weight="bold">DI to row 5, col a (jumper col e to Arduino D1)</text>
    <text x="655" y="399" fill="#d97706" font-weight="bold">DE to row 6, col a  }  same row = tied</text>
    <text x="655" y="413" fill="#d97706" font-weight="bold">RE to row 6, col b  }  jumper col e to Arduino D2</text>

    <text x="640" y="450" fill="#16a34a" font-weight="bold">STEP 3: Water Level Sensor (rows 10-12)</text>
    <rect x="640" y="460" width="520" height="40" rx="6" fill="white" stroke="#bbf7d0"/>
    <text x="655" y="480" fill="#333">Push in. VCC row to + rail, GND row to - rail, S row to A0</text>
    <text x="655" y="494" fill="#666" font-size="10">A0 is on the LEFT header, top of the ANALOG IN section</text>

    <text x="640" y="525" fill="#16a34a" font-weight="bold">STEP 4: DHT11 Temperature (rows 14-16)</text>
    <rect x="640" y="535" width="520" height="45" rx="6" fill="white" stroke="#bbf7d0"/>
    <text x="655" y="555" fill="#333">VCC(+) to + rail, GND(-) to - rail, S to D4 (right header)</text>
    <text x="655" y="572" fill="#666" font-size="10">D4 is on the RIGHT header, between pins 5 and 3</text>

    <text x="640" y="585" fill="#16a34a" font-weight="bold">STEP 5: Sound (rows 18-20)</text>
    <rect x="640" y="595" width="520" height="30" rx="6" fill="white" stroke="#bbf7d0"/>
    <text x="655" y="615" fill="#333">VCC to + rail, GND to - rail, OUT to A2</text>

    <text x="640" y="645" fill="#16a34a" font-weight="bold">STEP 6: Ultrasonic HC-SR04 (rows 22-25)</text>
    <rect x="640" y="655" width="520" height="45" rx="6" fill="white" stroke="#bbf7d0"/>
    <text x="655" y="675" fill="#333">VCC to + rail, GND to - rail</text>
    <text x="655" y="693" fill="#333">TRIG to D7 (right header), ECHO to D6 (right header)</text>

    <text x="640" y="725" fill="#16a34a" font-weight="bold">STEP 7: PIR Motion (rows 28-30)</text>
    <rect x="640" y="735" width="520" height="30" rx="6" fill="white" stroke="#bbf7d0"/>
    <text x="655" y="755" fill="#333">VCC to + rail, GND to - rail, OUT to D3 (right header)</text>

    <text x="640" y="800" fill="#dc2626" font-weight="bold">BEFORE UPLOADING FIRMWARE:</text>
    <rect x="640" y="810" width="520" height="60" rx="6" fill="#fef2f2" stroke="#fca5a5"/>
    <text x="655" y="830" fill="#dc2626">1. Pull jumper wires from D0 and D1</text>
    <text x="655" y="848" fill="#dc2626">2. Upload firmware via USB</text>
    <text x="655" y="866" fill="#dc2626">3. Reconnect jumpers to D0 and D1</text>

    <rect x="640" y="890" width="520" height="55" rx="6" fill="#eff6ff" stroke="#93c5fd"/>
    <text x="655" y="910" fill="#1e40af" font-weight="bold">120 ohm termination resistor:</text>
    <text x="655" y="928" fill="#333">Across A and B at each end of RS-485 bus (if cable over 30cm)</text>

    <text x="640" y="970" fill="#333" font-size="10">Rows 31-64 are free for expansion or debugging.</text>
    <text x="640" y="985" fill="#333" font-size="10">Right half of breadboard (f-j) entirely unused.</text>
  </g>
</svg>
