<svg xmlns="http://www.w3.org/2000/svg" viewBox="0 0 1200 1050" font-family="Consolas, monospace" font-size="12">
  <title>PLC 1 Breadboard Layout - Arduino Mega + All Modules</title>

  <rect width="1200" height="1050" fill="#fafafa" rx="8"/>

  <text x="600" y="28" text-anchor="middle" font-size="18" font-weight="bold">PLC 1 Breadboard Layout: Arduino Mega + All Modules</text>
  <text x="600" y="46" text-anchor="middle" font-size="11" fill="#666">Use a full-size breadboard (or two half-size). Wire power rails first.</text>

  <!-- ARDUINO MEGA -->
  <rect x="30" y="80" width="140" height="540" rx="10" fill="#2563eb" stroke="#1d4ed8" stroke-width="2"/>
  <rect x="38" y="88" width="124" height="524" rx="7" fill="#1e40af"/>
  <text x="100" y="110" text-anchor="middle" font-size="13" font-weight="bold" fill="white">Arduino</text>
  <text x="100" y="126" text-anchor="middle" font-size="13" font-weight="bold" fill="white">Mega</text>
  <text x="100" y="142" text-anchor="middle" font-size="9" fill="#93c5fd">2560</text>

  <!-- Mega pins right side (digital) -->
  <g font-size="8">
    <rect x="152" y="160" width="20" height="12" rx="2" fill="#d97706"/><text x="162" y="170" text-anchor="middle" fill="white">D2</text>
    <rect x="152" y="178" width="20" height="12" rx="2" fill="#d97706"/><text x="162" y="188" text-anchor="middle" fill="white">D5</text>
    <rect x="152" y="196" width="20" height="12" rx="2" fill="#d97706"/><text x="162" y="206" text-anchor="middle" fill="white">D8</text>
    <rect x="152" y="214" width="20" height="12" rx="2" fill="#d97706"/><text x="162" y="224" text-anchor="middle" fill="white">D9</text>
    <rect x="152" y="232" width="20" height="12" rx="2" fill="#d97706"/><text x="162" y="242" text-anchor="middle" fill="white">D10</text>
    <rect x="152" y="250" width="20" height="12" rx="2" fill="#d97706"/><text x="162" y="260" text-anchor="middle" fill="white">D12</text>
    <rect x="152" y="280" width="20" height="12" rx="2" fill="#4f46e5"/><text x="162" y="290" text-anchor="middle" fill="white">D18</text>
    <rect x="152" y="298" width="20" height="12" rx="2" fill="#4f46e5"/><text x="162" y="308" text-anchor="middle" fill="white">D19</text>
  </g>

  <!-- Mega pins left side (LCD + SPI + power) -->
  <g font-size="8">
    <rect x="28" y="160" width="20" height="12" rx="2" fill="#dc2626"/><text x="38" y="170" text-anchor="middle" fill="white">5V</text>
    <rect x="28" y="178" width="20" height="12" rx="2" fill="#333"/><text x="38" y="188" text-anchor="middle" fill="white">GND</text>
    <rect x="28" y="196" width="20" height="12" rx="2" fill="#f59e0b"/><text x="38" y="206" text-anchor="middle" fill="white">3.3V</text>

    <rect x="28" y="230" width="20" height="12" rx="2" fill="#db2777"/><text x="38" y="240" text-anchor="middle" fill="white">D22</text>
    <rect x="28" y="248" width="20" height="12" rx="2" fill="#db2777"/><text x="38" y="258" text-anchor="middle" fill="white">D23</text>
    <rect x="28" y="266" width="20" height="12" rx="2" fill="#db2777"/><text x="38" y="276" text-anchor="middle" fill="white">D24</text>
    <rect x="28" y="284" width="20" height="12" rx="2" fill="#db2777"/><text x="38" y="294" text-anchor="middle" fill="white">D25</text>
    <rect x="28" y="302" width="20" height="12" rx="2" fill="#db2777"/><text x="38" y="312" text-anchor="middle" fill="white">D26</text>
    <rect x="28" y="320" width="20" height="12" rx="2" fill="#db2777"/><text x="38" y="330" text-anchor="middle" fill="white">D27</text>

    <rect x="28" y="360" width="20" height="12" rx="2" fill="#2563eb"/><text x="38" y="370" text-anchor="middle" fill="white">D50</text>
    <rect x="28" y="378" width="20" height="12" rx="2" fill="#2563eb"/><text x="38" y="388" text-anchor="middle" fill="white">D51</text>
    <rect x="28" y="396" width="20" height="12" rx="2" fill="#2563eb"/><text x="38" y="406" text-anchor="middle" fill="white">D52</text>
    <rect x="28" y="414" width="20" height="12" rx="2" fill="#7c3aed"/><text x="38" y="424" text-anchor="middle" fill="white">D53</text>
  </g>

  <!-- BREADBOARD -->
  <rect x="210" y="70" width="680" height="350" rx="8" fill="#f5f0e0" stroke="#c9b97a" stroke-width="2"/>
  <text x="550" y="88" text-anchor="middle" font-size="11" font-weight="bold" fill="#8b7e5a">BREADBOARD (full-size recommended)</text>

  <!-- Top power rail + -->
  <rect x="230" y="96" width="640" height="12" rx="3" fill="#fee2e2" stroke="#dc2626" stroke-width="1"/>
  <text x="220" y="106" text-anchor="end" font-size="10" fill="#dc2626" font-weight="bold">+5V</text>
  <!-- Top power rail - -->
  <rect x="230" y="112" width="640" height="12" rx="3" fill="#dbeafe" stroke="#2563eb" stroke-width="1"/>
  <text x="220" y="122" text-anchor="end" font-size="10" fill="#2563eb" font-weight="bold">GND</text>

  <!-- 3.3V rail (separate, bottom) -->
  <rect x="230" y="380" width="640" height="12" rx="3" fill="#fef3c7" stroke="#f59e0b" stroke-width="1"/>
  <text x="220" y="390" text-anchor="end" font-size="10" fill="#d97706" font-weight="bold">3.3V</text>
  <rect x="230" y="396" width="640" height="12" rx="3" fill="#dbeafe" stroke="#2563eb" stroke-width="1"/>
  <text x="220" y="406" text-anchor="end" font-size="10" fill="#2563eb" font-weight="bold">GND</text>

  <!-- Column labels -->
  <g font-size="7" fill="#999">
    <text x="250" y="136" text-anchor="middle">1</text>
    <text x="270" y="136" text-anchor="middle">2</text>
    <text x="290" y="136" text-anchor="middle">3</text>
    <text x="310" y="136" text-anchor="middle">4</text>
    <text x="330" y="136" text-anchor="middle">5</text>
    <text x="350" y="136" text-anchor="middle">6</text>
    <text x="370" y="136" text-anchor="middle">7</text>
    <text x="390" y="136" text-anchor="middle">8</text>
    <text x="410" y="136" text-anchor="middle">9</text>
    <text x="430" y="136" text-anchor="middle">10</text>
    <text x="450" y="136" text-anchor="middle">11</text>
    <text x="470" y="136" text-anchor="middle">12</text>
    <text x="490" y="136" text-anchor="middle">13</text>
    <text x="510" y="136" text-anchor="middle">14</text>
    <text x="530" y="136" text-anchor="middle">15</text>
    <text x="550" y="136" text-anchor="middle">16</text>
    <text x="570" y="136" text-anchor="middle">17</text>
    <text x="590" y="136" text-anchor="middle">18</text>
    <text x="610" y="136" text-anchor="middle">19</text>
    <text x="630" y="136" text-anchor="middle">20</text>
    <text x="650" y="136" text-anchor="middle">21</text>
    <text x="670" y="136" text-anchor="middle">22</text>
    <text x="690" y="136" text-anchor="middle">23</text>
    <text x="710" y="136" text-anchor="middle">24</text>
    <text x="730" y="136" text-anchor="middle">25</text>
    <text x="750" y="136" text-anchor="middle">26</text>
    <text x="770" y="136" text-anchor="middle">27</text>
    <text x="790" y="136" text-anchor="middle">28</text>
    <text x="810" y="136" text-anchor="middle">29</text>
    <text x="830" y="136" text-anchor="middle">30</text>
  </g>

  <!-- Row labels -->
  <g font-size="8" fill="#888">
    <text x="235" y="155">a</text><text x="235" y="170">b</text><text x="235" y="185">c</text><text x="235" y="200">d</text><text x="235" y="215">e</text>
  </g>
  <!-- Center gap -->
  <rect x="230" y="222" width="640" height="12" rx="2" fill="#e8e0c8"/>
  <text x="550" y="232" text-anchor="middle" font-size="7" fill="#8b7e5a">center gap</text>
  <g font-size="8" fill="#888">
    <text x="235" y="247">f</text><text x="235" y="262">g</text><text x="235" y="277">h</text><text x="235" y="292">i</text><text x="235" y="307">j</text>
  </g>

  <!-- Bottom power rail -->
  <rect x="230" y="320" width="640" height="12" rx="3" fill="#fee2e2" stroke="#dc2626" stroke-width="1"/>
  <rect x="230" y="336" width="640" height="12" rx="3" fill="#dbeafe" stroke="#2563eb" stroke-width="1"/>

  <!-- STEP 1: Power Rails -->
  <!-- 5V to + rail -->
  <line x1="28" y1="166" x2="15" y2="166" stroke="#dc2626" stroke-width="3"/>
  <line x1="15" y1="166" x2="15" y2="60" stroke="#dc2626" stroke-width="3"/>
  <line x1="15" y1="60" x2="250" y2="60" stroke="#dc2626" stroke-width="3"/>
  <line x1="250" y1="60" x2="250" y2="96" stroke="#dc2626" stroke-width="3"/>
  <circle cx="250" cy="102" r="4" fill="#dc2626"/>

  <!-- GND to - rail -->
  <line x1="28" y1="184" x2="10" y2="184" stroke="#2563eb" stroke-width="3"/>
  <line x1="10" y1="184" x2="10" y2="55" stroke="#2563eb" stroke-width="3"/>
  <line x1="10" y1="55" x2="270" y2="55" stroke="#2563eb" stroke-width="3"/>
  <line x1="270" y1="55" x2="270" y2="112" stroke="#2563eb" stroke-width="3"/>
  <circle cx="270" cy="118" r="4" fill="#2563eb"/>

  <!-- 3.3V to bottom 3.3V rail -->
  <line x1="28" y1="202" x2="5" y2="202" stroke="#f59e0b" stroke-width="3"/>
  <line x1="5" y1="202" x2="5" y2="386" stroke="#f59e0b" stroke-width="3"/>
  <line x1="5" y1="386" x2="250" y2="386" stroke="#f59e0b" stroke-width="3"/>
  <circle cx="250" cy="386" r="4" fill="#f59e0b"/>

  <!-- GND to bottom GND rail -->
  <line x1="270" y1="336" x2="270" y2="396" stroke="#2563eb" stroke-width="2"/>
  <circle cx="270" cy="402" r="3" fill="#2563eb"/>

  <!-- SPI BUS DISTRIBUTION (columns 1-4) -->
  <rect x="242" y="140" width="78" height="85" rx="4" fill="#dbeafe" stroke="#2563eb" stroke-width="2"/>
  <text x="281" y="155" text-anchor="middle" font-size="8" font-weight="bold" fill="#1e40af">SPI BUS</text>
  <text x="281" y="165" text-anchor="middle" font-size="7" fill="#3b82f6">Distribution</text>
  <g font-size="7" fill="#1e40af">
    <text x="248" y="180">col1: MISO</text>
    <text x="248" y="193">col2: MOSI</text>
    <text x="248" y="206">col3: SCK</text>
    <text x="248" y="219">col4: (free)</text>
  </g>

  <!-- Arduino SPI pins to breadboard SPI bus -->
  <line x1="48" y1="366" x2="190" y2="366" stroke="#2563eb" stroke-width="2"/>
  <line x1="190" y1="366" x2="190" y2="175" stroke="#2563eb" stroke-width="2"/>
  <line x1="190" y1="175" x2="250" y2="175" stroke="#2563eb" stroke-width="2"/>
  <text x="195" y="365" font-size="7" fill="#2563eb">D50 (MISO) → col1</text>

  <line x1="48" y1="384" x2="185" y2="384" stroke="#2563eb" stroke-width="2"/>
  <line x1="185" y1="384" x2="185" y2="188" stroke="#2563eb" stroke-width="2"/>
  <line x1="185" y1="188" x2="270" y2="188" stroke="#2563eb" stroke-width="2"/>
  <text x="195" y="383" font-size="7" fill="#2563eb">D51 (MOSI) → col2</text>

  <line x1="48" y1="402" x2="180" y2="402" stroke="#2563eb" stroke-width="2"/>
  <line x1="180" y1="402" x2="180" y2="201" stroke="#2563eb" stroke-width="2"/>
  <line x1="180" y1="201" x2="290" y2="201" stroke="#2563eb" stroke-width="2"/>
  <text x="195" y="400" font-size="7" fill="#2563eb">D52 (SCK) → col3</text>

  <!-- W5500 MODULE (columns 5-8, rows a-d) -->
  <rect x="322" y="140" width="78" height="85" rx="4" fill="#dbeafe" stroke="#2563eb" stroke-width="2"/>
  <text x="361" y="155" text-anchor="middle" font-size="9" font-weight="bold" fill="#1e40af">W5500</text>
  <text x="361" y="165" text-anchor="middle" font-size="7" fill="#3b82f6">Ethernet</text>
  <g font-size="7" fill="#1e40af">
    <text x="328" y="180">MISO</text><text x="375" y="180">VCC</text>
    <text x="328" y="193">MOSI</text><text x="375" y="193">GND</text>
    <text x="328" y="206">SCK</text><text x="375" y="206">CS</text>
    <text x="328" y="219">(nc)</text><text x="375" y="219">(nc)</text>
  </g>

  <!-- W5500 SPI connections from SPI bus cols to W5500 cols -->
  <!-- MISO: col1 row e to col5 row e (jumper wire on top half) -->
  <line x1="250" y1="212" x2="330" y2="170" stroke="#2563eb" stroke-width="1.5" stroke-dasharray="3"/>
  <line x1="270" y1="212" x2="330" y2="183" stroke="#2563eb" stroke-width="1.5" stroke-dasharray="3"/>
  <line x1="290" y1="212" x2="330" y2="196" stroke="#2563eb" stroke-width="1.5" stroke-dasharray="3"/>

  <!-- W5500 VCC to + rail -->
  <line x1="390" y1="140" x2="390" y2="102" stroke="#dc2626" stroke-width="1.5"/>
  <circle cx="390" cy="102" r="3" fill="#dc2626"/>
  <!-- W5500 GND to - rail -->
  <line x1="390" y1="193" x2="410" y2="193" stroke="#333" stroke-width="1.5"/>
  <line x1="410" y1="193" x2="410" y2="118" stroke="#333" stroke-width="1.5"/>
  <circle cx="410" cy="118" r="3" fill="#2563eb"/>

  <!-- W5500 CS to Arduino D10 -->
  <line x1="390" y1="206" x2="420" y2="206" stroke="#d97706" stroke-width="2"/>
  <line x1="420" y1="206" x2="420" y2="238" stroke="#d97706" stroke-width="2"/>
  <line x1="420" y1="238" x2="172" y2="238" stroke="#d97706" stroke-width="2"/>
  <text x="195" y="235" font-size="7" fill="#d97706">CS → D10</text>

  <!-- RJ45 label -->
  <rect x="350" y="230" width="45" height="18" rx="3" fill="#e2e8f0" stroke="#64748b"/>
  <text x="372" y="243" text-anchor="middle" font-size="7" font-weight="bold" fill="#475569">RJ45</text>
  <text x="400" y="243" font-size="7" fill="#64748b">→ Switch</text>

  <!-- MAX485 MODULE (columns 10-13) -->
  <rect x="422" y="140" width="78" height="85" rx="4" fill="#fef9c3" stroke="#ca8a04" stroke-width="2"/>
  <text x="461" y="155" text-anchor="middle" font-size="9" font-weight="bold" fill="#854d0e">MAX485</text>
  <text x="461" y="165" text-anchor="middle" font-size="7" fill="#a16207">RS-485</text>
  <g font-size="7" fill="#854d0e">
    <text x="428" y="180">RO</text><text x="475" y="180">VCC</text>
    <text x="428" y="193">DI</text><text x="475" y="193">B</text>
    <text x="428" y="206">DE</text><text x="475" y="206">A</text>
    <text x="428" y="219">RE</text><text x="475" y="219">GND</text>
  </g>

  <!-- MAX485 VCC to + rail -->
  <line x1="490" y1="140" x2="490" y2="102" stroke="#dc2626" stroke-width="1.5"/>
  <circle cx="490" cy="102" r="3" fill="#dc2626"/>
  <!-- MAX485 GND to - rail -->
  <line x1="490" y1="219" x2="510" y2="219" stroke="#333" stroke-width="1.5"/>
  <line x1="510" y1="219" x2="510" y2="118" stroke="#333" stroke-width="1.5"/>
  <circle cx="510" cy="118" r="3" fill="#2563eb"/>

  <!-- MAX485 RO to Arduino D19 (RX1) -->
  <line x1="430" y1="175" x2="430" y2="310" stroke="#4f46e5" stroke-width="2"/>
  <line x1="430" y1="310" x2="172" y2="304" stroke="#4f46e5" stroke-width="2"/>
  <text x="195" y="302" font-size="7" fill="#4f46e5">RO → D19 (RX1)</text>

  <!-- MAX485 DI to Arduino D18 (TX1) -->
  <line x1="430" y1="193" x2="425" y2="193" stroke="#4f46e5" stroke-width="2"/>
  <line x1="425" y1="193" x2="425" y2="300" stroke="#4f46e5" stroke-width="2"/>
  <line x1="425" y1="300" x2="172" y2="286" stroke="#4f46e5" stroke-width="2"/>
  <text x="195" y="283" font-size="7" fill="#4f46e5">DI → D18 (TX1)</text>

  <!-- MAX485 DE+RE to Arduino D2 -->
  <line x1="430" y1="206" x2="415" y2="206" stroke="#d97706" stroke-width="2"/>
  <line x1="415" y1="206" x2="415" y2="255" stroke="#d97706" stroke-width="2"/>
  <line x1="415" y1="255" x2="172" y2="166" stroke="#d97706" stroke-width="2"/>
  <text x="195" y="163" font-size="7" fill="#d97706">DE+RE → D2</text>

  <!-- A/B to twisted pair -->
  <line x1="490" y1="196" x2="530" y2="196" stroke="#ca8a04" stroke-width="3"/>
  <line x1="490" y1="206" x2="530" y2="206" stroke="#ca8a04" stroke-width="3"/>
  <text x="535" y="198" font-size="8" fill="#ca8a04" font-weight="bold">A → PLC 2</text>
  <text x="535" y="210" font-size="8" fill="#ca8a04" font-weight="bold">B → PLC 2</text>

  <!-- RFID MODULE (columns 15-18) -->
  <rect x="522" y="252" width="78" height="68" rx="4" fill="#ede9fe" stroke="#7c3aed" stroke-width="2"/>
  <text x="561" y="267" text-anchor="middle" font-size="9" font-weight="bold" fill="#5b21b6">MFRC522</text>
  <text x="561" y="277" text-anchor="middle" font-size="7" fill="#7c3aed">RFID</text>
  <g font-size="7" fill="#5b21b6">
    <text x="528" y="292">SDA</text><text x="575" y="292">SCK</text>
    <text x="528" y="305">MOSI</text><text x="575" y="305">MISO</text>
    <text x="528" y="315">RST</text>
  </g>

  <!-- RFID SPI connections from SPI bus -->
  <!-- SCK, MOSI, MISO from SPI bus columns via bottom half jumpers -->
  <text x="610" y="267" font-size="7" fill="#7c3aed">SPI from cols 1-3</text>
  <text x="610" y="280" font-size="7" fill="#7c3aed">(bottom half jumpers)</text>

  <!-- RFID SDA (CS) to Arduino D53 -->
  <line x1="530" y1="292" x2="520" y2="292" stroke="#7c3aed" stroke-width="2"/>
  <line x1="520" y1="292" x2="520" y2="420" stroke="#7c3aed" stroke-width="2"/>
  <line x1="520" y1="420" x2="48" y2="420" stroke="#7c3aed" stroke-width="2"/>
  <text x="195" y="418" font-size="7" fill="#7c3aed">SDA → D53 (CS)</text>

  <!-- RFID RST to Arduino D5 -->
  <line x1="530" y1="315" x2="515" y2="315" stroke="#7c3aed" stroke-width="2"/>
  <line x1="515" y1="315" x2="515" y2="435" stroke="#7c3aed" stroke-width="2"/>
  <line x1="515" y1="435" x2="172" y2="184" stroke="#7c3aed" stroke-width="2"/>
  <text x="195" y="181" font-size="7" fill="#7c3aed">RST → D5</text>

  <!-- RFID VCC to 3.3V rail (NOT 5V!) -->
  <line x1="560" y1="320" x2="560" y2="380" stroke="#f59e0b" stroke-width="2"/>
  <circle cx="560" cy="386" r="3" fill="#f59e0b"/>
  <text x="565" y="370" font-size="7" fill="#dc2626" font-weight="bold">3.3V! not 5V!</text>

  <!-- RFID GND -->
  <line x1="580" y1="320" x2="580" y2="396" stroke="#2563eb" stroke-width="1.5"/>
  <circle cx="580" cy="402" r="3" fill="#2563eb"/>

  <!-- ACTUATORS (directly wired, not on breadboard) -->
  <rect x="900" y="80" width="280" height="340" rx="8" fill="#fce7f3" stroke="#ec4899" stroke-width="2"/>
  <text x="1040" y="105" text-anchor="middle" font-size="14" font-weight="bold" fill="#9d174d">ACTUATORS</text>
  <text x="1040" y="120" text-anchor="middle" font-size="9" fill="#be185d">Direct wire to Arduino (no breadboard needed)</text>

  <!-- Relay -->
  <rect x="920" y="140" width="240" height="55" rx="6" fill="white" stroke="#ec4899"/>
  <text x="930" y="158" font-size="11" font-weight="bold" fill="#9d174d">Relay Module (Pump)</text>
  <text x="930" y="175" font-size="10" fill="#333">IN → D8   VCC → +rail   GND → -rail</text>
  <text x="930" y="188" font-size="9" fill="#9d174d">Motor: COM→power, NO→motor+, motor-→GND</text>

  <line x1="172" y1="202" x2="900" y2="160" stroke="#ec4899" stroke-width="2" stroke-dasharray="4"/>

  <!-- Servo -->
  <rect x="920" y="205" width="240" height="45" rx="6" fill="white" stroke="#ec4899"/>
  <text x="930" y="223" font-size="11" font-weight="bold" fill="#9d174d">Servo Motor (Valve)</text>
  <text x="930" y="240" font-size="10" fill="#333">Signal → D9   Red → +rail   Brown → -rail</text>

  <line x1="172" y1="220" x2="900" y2="220" stroke="#ec4899" stroke-width="2" stroke-dasharray="4"/>

  <!-- Buzzer -->
  <rect x="920" y="260" width="240" height="40" rx="6" fill="white" stroke="#ec4899"/>
  <text x="930" y="278" font-size="11" font-weight="bold" fill="#9d174d">Buzzer (Alarm)</text>
  <text x="930" y="293" font-size="10" fill="#333">+ → D12   - → GND</text>

  <line x1="172" y1="256" x2="900" y2="275" stroke="#ec4899" stroke-width="2" stroke-dasharray="4"/>

  <!-- LCD -->
  <rect x="920" y="310" width="240" height="95" rx="6" fill="white" stroke="#db2777"/>
  <text x="930" y="330" font-size="11" font-weight="bold" fill="#9d174d">LCD 16x2 (HMI)</text>
  <text x="930" y="348" font-size="9" fill="#333">RS→D22  E→D23  D4→D24  D5→D25</text>
  <text x="930" y="362" font-size="9" fill="#333">D6→D26  D7→D27</text>
  <text x="930" y="378" font-size="9" fill="#333">VSS→GND  VDD→+rail  RW→GND</text>
  <text x="930" y="392" font-size="9" fill="#333">VO→10kΩ pot (contrast adjust)</text>

  <!-- LCD wires -->
  <line x1="48" y1="236" x2="920" y2="330" stroke="#db2777" stroke-width="1.5" stroke-dasharray="4"/>

  <!-- BUILD ORDER -->
  <rect x="30" y="450" width="1140" height="580" rx="8" fill="#f8fafc" stroke="#e2e8f0"/>
  <text x="50" y="478" font-size="16" font-weight="bold" fill="#333">BUILD ORDER (follow exactly):</text>

  <g font-size="11">
    <text x="50" y="510" fill="#dc2626" font-weight="bold">STEP 1: Power Rails</text>
    <text x="50" y="528" fill="#333">a) Wire Arduino 5V → breadboard top + rail</text>
    <text x="50" y="544" fill="#333">b) Wire Arduino GND → breadboard top - rail</text>
    <text x="50" y="560" fill="#333">c) Wire Arduino 3.3V → breadboard bottom orange rail (for RFID only)</text>
    <text x="50" y="576" fill="#333">d) Jumper: top GND rail → bottom GND rail (so both halves share ground)</text>

    <text x="50" y="608" fill="#2563eb" font-weight="bold">STEP 2: SPI Bus Distribution (columns 1-3)</text>
    <text x="50" y="626" fill="#333">a) Wire Arduino D50 (MISO) → breadboard column 1, any row in top half</text>
    <text x="50" y="642" fill="#333">b) Wire Arduino D51 (MOSI) → breadboard column 2, any row in top half</text>
    <text x="50" y="658" fill="#333">c) Wire Arduino D52 (SCK) → breadboard column 3, any row in top half</text>
    <text x="50" y="674" fill="#666" font-size="10">These 3 columns now carry SPI signals. Both W5500 and RFID tap into them.</text>

    <text x="50" y="706" fill="#2563eb" font-weight="bold">STEP 3: W5500 Ethernet Module (columns 5-8)</text>
    <text x="50" y="724" fill="#333">a) Push W5500 header pins into columns 5-8</text>
    <text x="50" y="740" fill="#333">b) Jumper: W5500 MISO pin row → column 1 same row (connects to SPI bus)</text>
    <text x="50" y="756" fill="#333">c) Jumper: W5500 MOSI pin row → column 2 same row</text>
    <text x="50" y="772" fill="#333">d) Jumper: W5500 SCK pin row → column 3 same row</text>
    <text x="50" y="788" fill="#333">e) Wire: W5500 CS pin row → Arduino D10</text>
    <text x="50" y="804" fill="#333">f) Jumper: W5500 VCC row → + rail, GND row → - rail</text>
    <text x="50" y="820" fill="#333">g) Plug Ethernet cable from W5500 RJ45 → Switch Port 2</text>

    <text x="50" y="852" fill="#ca8a04" font-weight="bold">STEP 4: MAX485 RS-485 Module (columns 10-13)</text>
    <text x="50" y="870" fill="#333">a) Push MAX485 into columns 10-13. Wire VCC row → + rail, GND row → - rail</text>
    <text x="50" y="886" fill="#333">b) Wire: RO → Arduino D19 (RX1), DI → Arduino D18 (TX1), DE+RE → Arduino D2</text>
    <text x="50" y="902" fill="#333">c) Connect A and B terminals → twisted pair cable → PLC 2 MAX485</text>

    <text x="50" y="934" fill="#7c3aed" font-weight="bold">STEP 5: RFID Module (columns 15-18, bottom half)</text>
    <text x="50" y="952" fill="#333">a) Push RFID into bottom half of breadboard. Jumper SPI pins to columns 1-3 (bottom half)</text>
    <text x="50" y="968" fill="#dc2626" font-weight="bold">b) RFID VCC → 3.3V rail (orange). NOT 5V! The MFRC522 will be damaged by 5V.</text>
    <text x="50" y="984" fill="#333">c) Wire: SDA → Arduino D53 (CS), RST → Arduino D5, GND → GND rail</text>

    <text x="50" y="1016" fill="#ec4899" font-weight="bold">STEP 6: Actuators + LCD (direct wiring, no breadboard)</text>
    <text x="50" y="1034" fill="#333">Relay(IN→D8), Servo(Signal→D9), Buzzer(+→D12). LCD: RS→D22, E→D23, D4-D7→D24-D27. Power from breadboard rails.</text>
  </g>
</svg>
